<svg xmlns="http://www.w3.org/2000/svg" viewBox="0 -36 920 202" xmlns:c2pa="http://c2pa.org/manifest"><metadata><c2pa:manifest>AAAWgmp1bWIAAAAeanVtZGMycGEAEQAQgAAAqgA4m3EDYzJwYQAAABZcanVtYgAAAEdqdW1kYzJtYQARABCAAACqADibcQN1cm46YzJwYTpkOGJjMWE4Ny04N2FmLTRiMjgtOWUyNy04ZGM1OGQyNWM2ZTEAAAADl2p1bWIAAAApanVtZGMyYXMAEQAQgAAAqgA4m3EDYzJwYS5hc3NlcnRpb25zAAAAALxqdW1iAAAARGp1bWRjYm9yABEAEIAAAKoAOJtxE2MycGEuaW5ncmVkaWVudC52MwAAAAAYYzJzaEEYNEi+dpowPoRHQYs1UTYAAABwY2JvcqNpZGM6Zm9ybWF0bWltYWdlL3N2Zyt4bWxqaW5zdGFuY2VJRHgseG1wOmlpZDphMTkzOTc3My1hMDdiLTQyNTktYjYyOC0xMTRhOTM0OWVkMTBscmVsYXRpb25zaGlwaHBhcmVudE9mAAAB4mp1bWIAAABBanVtZGNib3IAEQAQgAAAqgA4m3ETYzJwYS5hY3Rpb25zLnYyAAAAABhjMnNors2iPq8cNUZIZh7pA80TtwAAAZljYm9yomdhY3Rpb25zgqJmYWN0aW9ua2MycGEub3BlbmVkanBhcmFtZXRlcnOha2luZ3JlZGllbnRzgaJjdXJseC1zZWxmI2p1bWJmPWMycGEuYXNzZXJ0aW9ucy9jMnBhLmluZ3JlZGllbnQudjNkaGFzaFggkTEKk20LvdNnY4FdlzwxwfM9y4Jxnp7UGNRyJUzJIWekZmFjdGlvbngdY29tLmFudGhyb3BpYy5jbGF1ZGUucHJvdmlkZWRqcGFyYW1ldGVyc6F4H2NvbS5hbnRocm9waWMub3JpZ2luLWNvbmZpZGVuY2VndW5rbm93bmtkZXNjcmlwdGlvbnhmQ2xhdWRlIHByb3ZpZGVkIHRoaXMgZmlsZSBhdCB0aGUgcmVxdWVzdCBvZiBhIHVzZXIgYW5kIG1heSBoYXZlIGNyZWF0ZWQgb3IgbW9kaWZpZWQgdGhlIGZpbGUgY29udGVudHMubXNvZnR3YXJlQWdlbnShZG5hbWVmQ2xhdWRlcmFsbEFjdGlvbnNJbmNsdWRlZPUAAADIanVtYgAAAEBqdW1kY2JvcgARABCAAACqADibcRNjMnBhLmhhc2guZGF0YQAAAAAYYzJzaIM7BJFDFysa1XROHFaeMqIAAACAY2JvcqVjYWxnZnNoYTI1NmNwYWRNAAAAAAAAAAAAAAAAAGRoYXNoWCDeNqTcLCHzQ37mP+kOcbgxrI/6zI65zYZBr0JkX6AKz2RuYW1lbmp1bWJmIG1hbmlmZXN0amV4Y2x1c2lvbnOBomVzdGFydBh/Zmxlbmd0aBkeBAAAAj5qdW1iAAAAJ2p1bWRjMmNsABEAEIAAAKoAOJtxA2MycGEuY2xhaW0udjIAAAACD2Nib3KlY2FsZ2ZzaGEyNTZpc2lnbmF0dXJleE1zZWxmI2p1bWJmPS9jMnBhL3VybjpjMnBhOmQ4YmMxYTg3LTg3YWYtNGIyOC05ZTI3LThkYzU4ZDI1YzZlMS9jMnBhLnNpZ25hdHVyZWppbnN0YW5jZUlEeCx4bXA6aWlkOjAyZmE0Y2M1LTI4NWMtNDBhYy1hYWE3LWI3OWMxNzU0ZTY3ZXJjcmVhdGVkX2Fzc2VydGlvbnODomN1cmx4LXNlbGYjanVtYmY9YzJwYS5hc3NlcnRpb25zL2MycGEuaW5ncmVkaWVudC52M2RoYXNoWCCRMQqTbQu902djgV2XPDHB8z3LgnGentQY1HIlTMkhZ6JjdXJseCpzZWxmI2p1bWJmPWMycGEuYXNzZXJ0aW9ucy9jMnBhLmFjdGlvbnMudjJkaGFzaFggcq91jqkCQbriOpRglH3lQtCOH5lH5bqnnk3jXxJgFxKiY3VybHgpc2VsZiNqdW1iZj1jMnBhLmFzc2VydGlvbnMvYzJwYS5oYXNoLmRhdGFkaGFzaFggAw2Vk0tmt8cAfHIJSlKhozUNdKDdQklJoIW81Nz4gSt0Y2xhaW1fZ2VuZXJhdG9yX2luZm+jZG5hbWVvQW50aHJvcGljIEZpbGVzZ3ZlcnNpb25lMS4wLjBrc3BlY1ZlcnNpb25lMi40LjAAABA4anVtYgAAAChqdW1kYzJjcwARABCAAACqADibcQNjMnBhLnNpZ25hdHVyZQAAABAIY2JvctKEWQISogEmGCFZAgowggIGMIIBjaADAgECAhRA5aAK7sI50L64g/oGQgU9Z1UTADAKBggqhkjOPQQDAzBJMRcwFQYDVQQKEw5BbnRocm9waWMsIFBCQzEuMCwGA1UEAxMlQW50aHJvcGljIENvbnRlbnQgQ3JlZGVudGlhbHMgUm9vdCBDQTAeFw0yNjA4MDcxODQzNTZaFw0yODA4MDYxOTQzNTZaMEQxFzAVBgNVBAoTDkFudGhyb3BpYywgUEJDMSkwJwYDVQQDEyBBbnRocm9waWMgQ2xhdWRlIENvbnRlbnQgU2lnbmluZzBZMBMGByqGSM49AgEGCCqGSM49AwEHA0IABJh6CmvLUBgFFNU0vUKlOVtE6djd17L5SuwX0LemFisBM3dkd/3cyjxFA3Qo5S46fX0/ihY0VZ7mfb9KF703t5OjWDBWMA4GA1UdDwEB/wQEAwIHgDAVBgNVHSUEDjAMBgorBgEEAYPoXgIBMAwGA1UdEwEB/wQCMAAwHwYDVR0jBBgwFoAUzlHiBIFOZFsj+OPEz5o+nMHXXMIwCgYIKoZIzj0EAwMDZwAwZAIwMXMdFJ4BetLLVY7ORuE9noqbbAZOZn/aArXyTwFAZfKrPzxF2vPoJNf1+UCdg1XGAjBwX1zd9WGqYkqmL5SFqw1QySjr1zJfpJM9+1rdDwSPLMOPOjKuiXjoU/pUUeG9RwmhY3BhZFkNngAAAAAAAAAAAAAAAAAAAAAAAAAAAAAAAAAAAAAAAAAAAAAAAAAAAAAAAAAAAAAAAAAAAAAAAAAAAAAAAAAAAAAAAAAAAAAAAAAAAAAAAAAAAAAAAAAAAAAAAAAAAAAAAAAAAAAAAAAAAAAAAAAAAAAAAAAAAAAAAAAAAAAAAAAAAAAAAAAAAAAAAAAAAAAAAAAAAAAAAAAAAAAAAAAAAAAAAAAAAAAAAAAAAAAAAAAAAAAAAAAAAAAAAAAAAAAAAAAAAAAAAAAAAAAAAAAAAAAAAAAAAAAAAAAAAAAAAAAAAAAAAAAAAAAAAAAAAAAAAAAAAAAAAAAAAAAAAAAAAAAAAAAAAAAAAAAAAAAAAAAAAAAAAAAAAAAAAAAAAAAAAAAAAAAAAAAAAAAAAAAAAAAAAAAAAAAAAAAAAAAAAAAAAAAAAAAAAAAAAAAAAAAAAAAAAAAAAAAAAAAAAAAAAAAAAAAAAAAAAAAAAAAAAAAAAAAAAAAAAAAAAAAAAAAAAAAAAAAAAAAAAAAAAAAAAAAAAAAAAAAAAAAAAAAAAAAAAAAAAAAAAAAAAAAAAAAAAAAAAAAAAAAAAAAAAAAAAAAAAAAAAAAAAAAAAAAAAAAAAAAAAAAAAAAAAAAAAAAAAAAAAAAAAAAAAAAAAAAAAAAAAAAAAAAAAAAAAAAAAAAAAAAAAAAAAAAAAAAAAAAAAAAAAAAAAAAAAAAAAAAAAAAAAAAAAAAAAAAAAAAAAAAAAAAAAAAAAAAAAAAAAAAAAAAAAAAAAAAAAAAAAAAAAAAAAAAAAAAAAAAAAAAAAAAAAAAAAAAAAAAAAAAAAAAAAAAAAAAAAAAAAAAAAAAAAAAAAAAAAAAAAAAAAAAAAAAAAAAAAAAAAAAAAAAAAAAAAAAAAAAAAAAAAAAAAAAAAAAAAAAAAAAAAAAAAAAAAAAAAAAAAAAAAAAAAAAAAAAAAAAAAAAAAAAAAAAAAAAAAAAAAAAAAAAAAAAAAAAAAAAAAAAAAAAAAAAAAAAAAAAAAAAAAAAAAAAAAAAAAAAAAAAAAAAAAAAAAAAAAAAAAAAAAAAAAAAAAAAAAAAAAAAAAAAAAAAAAAAAAAAAAAAAAAAAAAAAAAAAAAAAAAAAAAAAAAAAAAAAAAAAAAAAAAAAAAAAAAAAAAAAAAAAAAAAAAAAAAAAAAAAAAAAAAAAAAAAAAAAAAAAAAAAAAAAAAAAAAAAAAAAAAAAAAAAAAAAAAAAAAAAAAAAAAAAAAAAAAAAAAAAAAAAAAAAAAAAAAAAAAAAAAAAAAAAAAAAAAAAAAAAAAAAAAAAAAAAAAAAAAAAAAAAAAAAAAAAAAAAAAAAAAAAAAAAAAAAAAAAAAAAAAAAAAAAAAAAAAAAAAAAAAAAAAAAAAAAAAAAAAAAAAAAAAAAAAAAAAAAAAAAAAAAAAAAAAAAAAAAAAAAAAAAAAAAAAAAAAAAAAAAAAAAAAAAAAAAAAAAAAAAAAAAAAAAAAAAAAAAAAAAAAAAAAAAAAAAAAAAAAAAAAAAAAAAAAAAAAAAAAAAAAAAAAAAAAAAAAAAAAAAAAAAAAAAAAAAAAAAAAAAAAAAAAAAAAAAAAAAAAAAAAAAAAAAAAAAAAAAAAAAAAAAAAAAAAAAAAAAAAAAAAAAAAAAAAAAAAAAAAAAAAAAAAAAAAAAAAAAAAAAAAAAAAAAAAAAAAAAAAAAAAAAAAAAAAAAAAAAAAAAAAAAAAAAAAAAAAAAAAAAAAAAAAAAAAAAAAAAAAAAAAAAAAAAAAAAAAAAAAAAAAAAAAAAAAAAAAAAAAAAAAAAAAAAAAAAAAAAAAAAAAAAAAAAAAAAAAAAAAAAAAAAAAAAAAAAAAAAAAAAAAAAAAAAAAAAAAAAAAAAAAAAAAAAAAAAAAAAAAAAAAAAAAAAAAAAAAAAAAAAAAAAAAAAAAAAAAAAAAAAAAAAAAAAAAAAAAAAAAAAAAAAAAAAAAAAAAAAAAAAAAAAAAAAAAAAAAAAAAAAAAAAAAAAAAAAAAAAAAAAAAAAAAAAAAAAAAAAAAAAAAAAAAAAAAAAAAAAAAAAAAAAAAAAAAAAAAAAAAAAAAAAAAAAAAAAAAAAAAAAAAAAAAAAAAAAAAAAAAAAAAAAAAAAAAAAAAAAAAAAAAAAAAAAAAAAAAAAAAAAAAAAAAAAAAAAAAAAAAAAAAAAAAAAAAAAAAAAAAAAAAAAAAAAAAAAAAAAAAAAAAAAAAAAAAAAAAAAAAAAAAAAAAAAAAAAAAAAAAAAAAAAAAAAAAAAAAAAAAAAAAAAAAAAAAAAAAAAAAAAAAAAAAAAAAAAAAAAAAAAAAAAAAAAAAAAAAAAAAAAAAAAAAAAAAAAAAAAAAAAAAAAAAAAAAAAAAAAAAAAAAAAAAAAAAAAAAAAAAAAAAAAAAAAAAAAAAAAAAAAAAAAAAAAAAAAAAAAAAAAAAAAAAAAAAAAAAAAAAAAAAAAAAAAAAAAAAAAAAAAAAAAAAAAAAAAAAAAAAAAAAAAAAAAAAAAAAAAAAAAAAAAAAAAAAAAAAAAAAAAAAAAAAAAAAAAAAAAAAAAAAAAAAAAAAAAAAAAAAAAAAAAAAAAAAAAAAAAAAAAAAAAAAAAAAAAAAAAAAAAAAAAAAAAAAAAAAAAAAAAAAAAAAAAAAAAAAAAAAAAAAAAAAAAAAAAAAAAAAAAAAAAAAAAAAAAAAAAAAAAAAAAAAAAAAAAAAAAAAAAAAAAAAAAAAAAAAAAAAAAAAAAAAAAAAAAAAAAAAAAAAAAAAAAAAAAAAAAAAAAAAAAAAAAAAAAAAAAAAAAAAAAAAAAAAAAAAAAAAAAAAAAAAAAAAAAAAAAAAAAAAAAAAAAAAAAAAAAAAAAAAAAAAAAAAAAAAAAAAAAAAAAAAAAAAAAAAAAAAAAAAAAAAAAAAAAAAAAAAAAAAAAAAAAAAAAAAAAAAAAAAAAAAAAAAAAAAAAAAAAAAAAAAAAAAAAAAAAAAAAAAAAAAAAAAAAAAAAAAAAAAAAAAAAAAAAAAAAAAAAAAAAAAAAAAAAAAAAAAAAAAAAAAAAAAAAAAAAAAAAAAAAAAAAAAAAAAAAAAAAAAAAAAAAAAAAAAAAAAAAAAAAAAAAAAAAAAAAAAAAAAAAAAAAAAAAAAAAAAAAAAAAAAAAAAAAAAAAAAAAAAAAAAAAAAAAAAAAAAAAAAAAAAAAAAAAAAAAAAAAAAAAAAAAAAAAAAAAAAAAAAAAAAAAAAAAAAAAAAAAAAAAAAAAAAAAAAAAAAAAAAAAAAAAAAAAAAAAAAAAAAAAAAAAAAAAAAAAAAAAAAAAAAAAAAAAAAAAAAAAAAAAAAAAAAAAAAAAAAAAAAAAAAAAAAAAAAAAAAAAAAAAAAAAAAAAAAAAAAAAAAAAAAAAAAAAAAAAAAAAAAAAAAAAAAAAAAAAAAAAAAAAAAAAAAAAAAAAAAAAAAAAAAAAAAAAAAAAAAAAAAAAAAAAAAAAAAAAAAAAAAAAAAAAAAAAAAAAAAAAAAAAAAAAAAAAAAAAAAAAAAAAAAAAAAAAAAAAAAAAAAAAAAAAAAAAAAAAAAAAAAAAAAAAAAAAAAAAAAAAAAAAAAAAAAAAAAAAAAAAAAAAAAAAAAAAAAAAAAAAAAAAAAAAAAAAAAAAAAAAAAAAAAAAAAAAAAAAAAAAAAAAAAAAAAAAAAAAAAAAAAAAAAAAAAAAAAAAAAAAAAAAAAAAAAAAAAAAAAAAAAAAAAAAAAAAAAAAAAAAAAAAAAAAAAAAAAAAAAAAAAAAAAAAAAAAAAAAAAAAAAAAAAAAAAAAAAAAAAAAAAAAAAAAAAAAAAAAAAAAAAAAAAAAAAAAAAAAAAAAAAAAAAAAAAAAAAAAAAAAAAAAAAAAAAAAAAAAAAAAAAAAAAAAAAAAAAAAAAAAAAAAAAAAAAAAAAAAAAAAAAAAAAAAAAAAAAAAAAAAAAAAAAAAAAAAAAAAAAAAAAAAAAAAAAAAAAAAAAAAAAAAAAAAAAAAAAAAAAAAAAAAAAAAAAAAAAAAAAAAAAAAAAAAAAAAAAAAAAAAAAAAAAAAAAAAAAAAAAAAAAAAAAAAAAAAAAAAAAAAAAAAAAAAAAAAAAAAAAAAAAAAAAAAAAAAAAAAAAAAAAAAAAAAAAAAAAAAAAAAAAAAAAAAAAAAAAAAAAAAAAAAAAAAAAAAAAAAAAAAAAAAAAAAAAAAAAAAAAAAAAAAAAAAAAAAAAAAAAAAAAAAAAAAAAAAAAAAAAAAAAAAAAAAAAAAAAAAAAAAAAAAAAAAAAAAAAAAAAAAAAAAAAAAAAAAAAAAAAAAAAAAAAAAAAAAAAAAAAAAAAAAAAAAAAAAAAAAAAAAAAAAAAAAAAAAAAAAAAAAAAAAAAAAAAAAAAAAAAAAAAAAAAAAAAAAAAAAAAAAAAAAAAAAAAAAAAAAAAAAAAAAAAAAAAAAAAAAAAAAAAAAAAAAAAAAAAAAAAAAAAAAAAAAAAAAAAAAAAAAAAAAAAAAAAAAAAAAAAAAAAAAAAAAAAAAAAAAAAAAAAAAAAAAAAAAAAAAAAAAAAAAAAAAAAAAAAAAAAAAAAAAAAAAAAAAAAAAAAAAAAAAAAAAAAAAAAAAAAAAAAAAAAAAAAAAAAAAAAAAAAAAAAAAAAAAAAAAAAAAAAAAAPZYQIlodAUPl4LGH1Svw2e3AP54/3f3ujvjwsvtEDZ574snpa9xDVjBIa053JsK4qASqYlvWSj6h4+vPwMAjRa/AVA=</c2pa:manifest></metadata>
<g fill="currentColor">
<path d="M40,124 L862,116 L872,134 Q866,154 836,160 L62,160 Q42,160 40,148 Z"/>
<ellipse cx="876" cy="150" rx="13" ry="7"/>
<path d="M782,122 L782,108 L858,102 L860,118 Z"/>
<rect x="64" y="80" width="106" height="44"/>
<rect x="74" y="58" width="86" height="22"/>
<rect x="84" y="40" width="66" height="18"/>
<rect x="58" y="36" width="118" height="5" rx="2"/>
<path d="M96,40 L136,40 L128,0 L102,0 Z"/>
<rect x="112" y="-28" width="3.4" height="30" rx="1.7"/>
<rect x="100" y="-20" width="28" height="3.4" rx="1.7"/>
<rect x="192.0" y="109.0" width="17.3" height="13" rx="1"/>
<rect x="210.8" y="109.0" width="17.3" height="13" rx="1"/>
<rect x="229.6" y="109.0" width="17.3" height="13" rx="1"/>
<rect x="192.0" y="94.0" width="17.3" height="13" rx="1"/>
<rect x="210.8" y="94.0" width="17.3" height="13" rx="1"/>
<rect x="229.6" y="94.0" width="17.3" height="13" rx="1"/>
<rect x="192.0" y="79.0" width="17.3" height="13" rx="1"/>
<rect x="210.8" y="79.0" width="17.3" height="13" rx="1"/>
<rect x="229.6" y="79.0" width="17.3" height="13" rx="1"/>
<rect x="192.0" y="64.0" width="17.3" height="13" rx="1"/>
<rect x="210.8" y="64.0" width="17.3" height="13" rx="1"/>
<rect x="229.6" y="64.0" width="17.3" height="13" rx="1"/>
<rect x="256.0" y="109.0" width="17.3" height="13" rx="1"/>
<rect x="274.8" y="109.0" width="17.3" height="13" rx="1"/>
<rect x="293.6" y="109.0" width="17.3" height="13" rx="1"/>
<rect x="256.0" y="94.0" width="17.3" height="13" rx="1"/>
<rect x="274.8" y="94.0" width="17.3" height="13" rx="1"/>
<rect x="293.6" y="94.0" width="17.3" height="13" rx="1"/>
<rect x="256.0" y="79.0" width="17.3" height="13" rx="1"/>
<rect x="274.8" y="79.0" width="17.3" height="13" rx="1"/>
<rect x="293.6" y="79.0" width="17.3" height="13" rx="1"/>
<rect x="256.0" y="64.0" width="17.3" height="13" rx="1"/>
<rect x="274.8" y="64.0" width="17.3" height="13" rx="1"/>
<rect x="293.6" y="64.0" width="17.3" height="13" rx="1"/>
<rect x="256.0" y="49.0" width="17.3" height="13" rx="1"/>
<rect x="274.8" y="49.0" width="17.3" height="13" rx="1"/>
<rect x="293.6" y="49.0" width="17.3" height="13" rx="1"/>
<rect x="320.0" y="109.0" width="17.3" height="13" rx="1"/>
<rect x="338.8" y="109.0" width="17.3" height="13" rx="1"/>
<rect x="357.6" y="109.0" width="17.3" height="13" rx="1"/>
<rect x="320.0" y="94.0" width="17.3" height="13" rx="1"/>
<rect x="338.8" y="94.0" width="17.3" height="13" rx="1"/>
<rect x="357.6" y="94.0" width="17.3" height="13" rx="1"/>
<rect x="320.0" y="79.0" width="17.3" height="13" rx="1"/>
<rect x="338.8" y="79.0" width="17.3" height="13" rx="1"/>
<rect x="357.6" y="79.0" width="17.3" height="13" rx="1"/>
<rect x="320.0" y="64.0" width="17.3" height="13" rx="1"/>
<rect x="338.8" y="64.0" width="17.3" height="13" rx="1"/>
<rect x="357.6" y="64.0" width="17.3" height="13" rx="1"/>
<rect x="320.0" y="49.0" width="17.3" height="13" rx="1"/>
<rect x="338.8" y="49.0" width="17.3" height="13" rx="1"/>
<rect x="357.6" y="49.0" width="17.3" height="13" rx="1"/>
<rect x="320.0" y="34.0" width="17.3" height="13" rx="1"/>
<rect x="338.8" y="34.0" width="17.3" height="13" rx="1"/>
<rect x="357.6" y="34.0" width="17.3" height="13" rx="1"/>
<rect x="384.0" y="109.0" width="17.3" height="13" rx="1"/>
<rect x="402.8" y="109.0" width="17.3" height="13" rx="1"/>
<rect x="421.6" y="109.0" width="17.3" height="13" rx="1"/>
<rect x="384.0" y="94.0" width="17.3" height="13" rx="1"/>
<rect x="402.8" y="94.0" width="17.3" height="13" rx="1"/>
<rect x="421.6" y="94.0" width="17.3" height="13" rx="1"/>
<rect x="384.0" y="79.0" width="17.3" height="13" rx="1"/>
<rect x="402.8" y="79.0" width="17.3" height="13" rx="1"/>
<rect x="421.6" y="79.0" width="17.3" height="13" rx="1"/>
<rect x="384.0" y="64.0" width="17.3" height="13" rx="1"/>
<rect x="402.8" y="64.0" width="17.3" height="13" rx="1"/>
<rect x="421.6" y="64.0" width="17.3" height="13" rx="1"/>
<rect x="384.0" y="49.0" width="17.3" height="13" rx="1"/>
<rect x="402.8" y="49.0" width="17.3" height="13" rx="1"/>
<rect x="421.6" y="49.0" width="17.3" height="13" rx="1"/>
<rect x="384.0" y="34.0" width="17.3" height="13" rx="1"/>
<rect x="402.8" y="34.0" width="17.3" height="13" rx="1"/>
<rect x="421.6" y="34.0" width="17.3" height="13" rx="1"/>
<rect x="448.0" y="109.0" width="17.3" height="13" rx="1"/>
<rect x="466.8" y="109.0" width="17.3" height="13" rx="1"/>
<rect x="485.6" y="109.0" width="17.3" height="13" rx="1"/>
<rect x="448.0" y="94.0" width="17.3" height="13" rx="1"/>
<rect x="466.8" y="94.0" width="17.3" height="13" rx="1"/>
<rect x="485.6" y="94.0" width="17.3" height="13" rx="1"/>
<rect x="448.0" y="79.0" width="17.3" height="13" rx="1"/>
<rect x="466.8" y="79.0" width="17.3" height="13" rx="1"/>
<rect x="485.6" y="79.0" width="17.3" height="13" rx="1"/>
<rect x="448.0" y="64.0" width="17.3" height="13" rx="1"/>
<rect x="466.8" y="64.0" width="17.3" height="13" rx="1"/>
<rect x="485.6" y="64.0" width="17.3" height="13" rx="1"/>
<rect x="448.0" y="49.0" width="17.3" height="13" rx="1"/>
<rect x="466.8" y="49.0" width="17.3" height="13" rx="1"/>
<rect x="485.6" y="49.0" width="17.3" height="13" rx="1"/>
<rect x="448.0" y="34.0" width="17.3" height="13" rx="1"/>
<rect x="466.8" y="34.0" width="17.3" height="13" rx="1"/>
<rect x="485.6" y="34.0" width="17.3" height="13" rx="1"/>
<rect x="448.0" y="19.0" width="17.3" height="13" rx="1"/>
<rect x="466.8" y="19.0" width="17.3" height="13" rx="1"/>
<rect x="485.6" y="19.0" width="17.3" height="13" rx="1"/>
<rect x="512.0" y="109.0" width="17.3" height="13" rx="1"/>
<rect x="530.8" y="109.0" width="17.3" height="13" rx="1"/>
<rect x="549.6" y="109.0" width="17.3" height="13" rx="1"/>
<rect x="512.0" y="94.0" width="17.3" height="13" rx="1"/>
<rect x="530.8" y="94.0" width="17.3" height="13" rx="1"/>
<rect x="549.6" y="94.0" width="17.3" height="13" rx="1"/>
<rect x="512.0" y="79.0" width="17.3" height="13" rx="1"/>
<rect x="530.8" y="79.0" width="17.3" height="13" rx="1"/>
<rect x="549.6" y="79.0" width="17.3" height="13" rx="1"/>
<rect x="512.0" y="64.0" width="17.3" height="13" rx="1"/>
<rect x="530.8" y="64.0" width="17.3" height="13" rx="1"/>
<rect x="549.6" y="64.0" width="17.3" height="13" rx="1"/>
<rect x="512.0" y="49.0" width="17.3" height="13" rx="1"/>
<rect x="530.8" y="49.0" width="17.3" height="13" rx="1"/>
<rect x="549.6" y="49.0" width="17.3" height="13" rx="1"/>
<rect x="512.0" y="34.0" width="17.3" height="13" rx="1"/>
<rect x="530.8" y="34.0" width="17.3" height="13" rx="1"/>
<rect x="549.6" y="34.0" width="17.3" height="13" rx="1"/>
<rect x="576.0" y="109.0" width="17.3" height="13" rx="1"/>
<rect x="594.8" y="109.0" width="17.3" height="13" rx="1"/>
<rect x="613.6" y="109.0" width="17.3" height="13" rx="1"/>
<rect x="576.0" y="94.0" width="17.3" height="13" rx="1"/>
<rect x="594.8" y="94.0" width="17.3" height="13" rx="1"/>
<rect x="613.6" y="94.0" width="17.3" height="13" rx="1"/>
<rect x="576.0" y="79.0" width="17.3" height="13" rx="1"/>
<rect x="594.8" y="79.0" width="17.3" height="13" rx="1"/>
<rect x="613.6" y="79.0" width="17.3" height="13" rx="1"/>
<rect x="576.0" y="64.0" width="17.3" height="13" rx="1"/>
<rect x="594.8" y="64.0" width="17.3" height="13" rx="1"/>
<rect x="613.6" y="64.0" width="17.3" height="13" rx="1"/>
<rect x="576.0" y="49.0" width="17.3" height="13" rx="1"/>
<rect x="594.8" y="49.0" width="17.3" height="13" rx="1"/>
<rect x="613.6" y="49.0" width="17.3" height="13" rx="1"/>
<rect x="576.0" y="34.0" width="17.3" height="13" rx="1"/>
<rect x="594.8" y="34.0" width="17.3" height="13" rx="1"/>
<rect x="613.6" y="34.0" width="17.3" height="13" rx="1"/>
<rect x="640.0" y="109.0" width="17.3" height="13" rx="1"/>
<rect x="658.8" y="109.0" width="17.3" height="13" rx="1"/>
<rect x="677.6" y="109.0" width="17.3" height="13" rx="1"/>
<rect x="640.0" y="94.0" width="17.3" height="13" rx="1"/>
<rect x="658.8" y="94.0" width="17.3" height="13" rx="1"/>
<rect x="677.6" y="94.0" width="17.3" height="13" rx="1"/>
<rect x="640.0" y="79.0" width="17.3" height="13" rx="1"/>
<rect x="658.8" y="79.0" width="17.3" height="13" rx="1"/>
<rect x="677.6" y="79.0" width="17.3" height="13" rx="1"/>
<rect x="640.0" y="64.0" width="17.3" height="13" rx="1"/>
<rect x="658.8" y="64.0" width="17.3" height="13" rx="1"/>
<rect x="677.6" y="64.0" width="17.3" height="13" rx="1"/>
<rect x="640.0" y="49.0" width="17.3" height="13" rx="1"/>
<rect x="658.8" y="49.0" width="17.3" height="13" rx="1"/>
<rect x="677.6" y="49.0" width="17.3" height="13" rx="1"/>
<rect x="704.0" y="109.0" width="17.3" height="13" rx="1"/>
<rect x="722.8" y="109.0" width="17.3" height="13" rx="1"/>
<rect x="741.6" y="109.0" width="17.3" height="13" rx="1"/>
<rect x="704.0" y="94.0" width="17.3" height="13" rx="1"/>
<rect x="722.8" y="94.0" width="17.3" height="13" rx="1"/>
<rect x="741.6" y="94.0" width="17.3" height="13" rx="1"/>
<rect x="704.0" y="79.0" width="17.3" height="13" rx="1"/>
<rect x="722.8" y="79.0" width="17.3" height="13" rx="1"/>
<rect x="741.6" y="79.0" width="17.3" height="13" rx="1"/>
<rect x="704.0" y="64.0" width="17.3" height="13" rx="1"/>
<rect x="722.8" y="64.0" width="17.3" height="13" rx="1"/>
<rect x="741.6" y="64.0" width="17.3" height="13" rx="1"/>
<rect x="768.0" y="109.0" width="17.3" height="13" rx="1"/>
<rect x="786.8" y="109.0" width="17.3" height="13" rx="1"/>
<rect x="805.6" y="109.0" width="17.3" height="13" rx="1"/>
<rect x="768.0" y="94.0" width="17.3" height="13" rx="1"/>
<rect x="786.8" y="94.0" width="17.3" height="13" rx="1"/>
<rect x="805.6" y="94.0" width="17.3" height="13" rx="1"/>
<rect x="768.0" y="79.0" width="17.3" height="13" rx="1"/>
<rect x="786.8" y="79.0" width="17.3" height="13" rx="1"/>
<rect x="805.6" y="79.0" width="17.3" height="13" rx="1"/>
<rect x="806" y="52" width="3.6" height="58" rx="1.8"/>
<rect x="792" y="66" width="30" height="3.4" rx="1.7"/>
</g></svg>